<?xml version="1.0" encoding="UTF-8"?>
<svg id="Layer_2" data-name="Layer 2" xmlns="http://www.w3.org/2000/svg" viewBox="0 0 176.49 201.57">
  <defs>
    <style>
      .cls-1 {
        fill: #e3148d;
      }
    </style>
  </defs>
  <circle class="cls-1" cx="88.24" cy="185.95" r="15.63"/>
  <circle class="cls-1" cx="87.76" cy="15.63" r="15.63"/>
  <circle class="cls-1" cx="15.63" cy="58.46" r="15.63"/>
  <circle class="cls-1" cx="160.86" cy="58.46" r="15.63"/>
  <circle class="cls-1" cx="15.63" cy="143.02" r="15.63"/>
  <circle class="cls-1" cx="160.86" cy="143.02" r="15.63"/>
  <path class="cls-1" d="M87.24,164.11l-52.16-31.53v-61.58l52.16-31.53,52.16,31.53v61.58l-52.16,31.53Zm-40.16-38.3l40.16,24.28,40.16-24.28v-48.04l-40.16-24.28-40.16,24.28v48.04Z"/>
  <polygon class="cls-1" points="88.24 5.94 8.63 53.73 8.63 147.84 88.24 195.63 142.15 163.27 125.44 156.98 88.24 179.3 22.63 139.92 22.63 61.66 88.24 22.27 153.86 61.66 153.86 139.92 141.53 147.31 153.3 156.58 167.86 147.84 167.86 53.73 88.24 5.94"/>
  <polygon class="cls-1" points="72.13 99.91 138.71 126.39 124.64 139.65 166.78 170.32 102.62 143.56 117.01 132.05 72.13 99.91"/>
</svg>